<svg xmlns="http://www.w3.org/2000/svg" xmlns:xlink="http://www.w3.org/1999/xlink" version="1.1" width="165" height="170" enable-background="new 0 0 165 170" xml:space="preserve"><rect id="backgroundrect" width="100%" height="100%" x="0" y="0" fill="none" stroke="none"/>

<g class="currentLayer" style=""><title>Layer 1</title><g id="Page-1" class="selected" fill="#ffa500" fill-opacity="1">
	<g id="Group-2-Copy-2" fill="#ffa500" fill-opacity="1">
		<path id="Combined-Shape" fill="#ffa500" d="M57.755034698963165,134.18906939792632 L57.755034698963165,134.18906939792632 c-8.023,-1.308 -15.203,-3.234 -21.138,-5.625 V171.05606939792634 H15.578034698963165 V94.87806939792632 c0,-5.948 2.066,-11.056 6.198,-15.322 C25.908034698963164,75.28906939792633 30.855034698963166,73.15606939792633 36.61703469896317,73.15606939792633 h42.177 v97.9 H57.755034698963165 V134.18906939792632 zM45.953034698963165,84.41106939792633 L39.578034698963165,113.35706939792632 l7.753,8.604 l7.753,-8.604 l-6.366,-28.902 c1.585,-1.11 3.4370000000000003,-3.516 3.4370000000000003,-4.238 c0,-1.138 -1.287,-2.061 -2.874,-2.061 h-3.831 C43.865034698963164,78.15606939792633 42.578034698963165,79.07906939792633 42.578034698963165,80.21706939792634 C42.578034698963165,80.93006939792633 44.383034698963165,83.28306939792633 45.953034698963165,84.41106939792633 L45.953034698963165,84.41106939792633 z" fill-opacity="1"/>
		<path id="Combined-Shape_1_" fill="#ffa500" d="M137.94103469896316,70.26506939792633 c18.426,-12.756 19.926,-40.818 8.121,-65.918 c1.943,-4.254 4.564,-4.254 7.865,0 c13.238,18.543 15.057,50.337 2.392,77.295 c-0.06300000000000001,0.134 -0.126,0.268 -0.18800000000000003,0.4 c-0.98,-1.613 -2.167,-3.1390000000000002 -3.557,-4.574 C148.45303469896317,73.21306939792633 143.53703469896317,70.79206939792633 137.94103469896316,70.26506939792633 z" fill-opacity="1"/>
		<path id="Combined-Shape_2_" fill="#ffa500" d="M136.27703469896318,73.16706939792633 c5.463,0.16600000000000004 10.178,2.2960000000000003 14.142,6.389 c4.132,4.266 6.198,9.374 6.198,15.322 V171.05606939792634 H135.57803469896317 v-43.159 c1.2930000000000001,-0.6850000000000002 2.5300000000000002,-1.502 3.7110000000000003,-2.449 c6.396,-4.684 9.506,-10.079 9.506,-19.659 V94.87806939792632 c0,-6.6930000000000005 -2.369,-12.539 -7.039,-17.38 C140.06003469896316,75.74106939792632 138.23203469896316,74.29606939792633 136.27703469896318,73.16706939792633 L136.27703469896318,73.16706939792633 z" fill-opacity="1"/>
		<path id="Combined-Shape_3_" fill="#ffa500" d="M145.79503469896318,105.78906939792633 V94.87806939792632 c0,-5.915 -2.066,-11.014 -6.199,-15.297 c-4.132,-4.283 -9.078,-6.425 -14.84,-6.425 H82.57803469896317 v97.9 h21.039 v-36.496 c12.121,-1.7510000000000001 22.482,-4.8950000000000005 29.779,-8.925 c1.425,-0.6750000000000002 2.7800000000000002,-1.53 4.066,-2.569 C141.71703469896318,119.96506939792633 145.79503469896318,115.82106939792634 145.79503469896318,105.78906939792633 z" fill-opacity="1"/>
		<g id="Group-3" fill="#ffa500" fill-opacity="1">
			<path id="Combined-Shape_4_" fill="#ffa500" d="M27.623034698963167,64.07306939792633 c-0.6160000000000001,0.8930000000000001 -1.263,1.7770000000000001 -1.94,2.654 H15.426034698963166 C3.7720346989631652,56.75006939792633 -1.0219653010368348,47.83306939792633 1.0450346989631654,39.97606939792633 C4.099034698963165,28.36306939792633 21.490034698963164,2.601069397926331 29.456034698963165,3.1650693979263305 C22.836034698963164,7.4190693979263305 18.578034698963165,13.988069397926331 18.578034698963165,21.43306939792633 c0,5.646 3.73,13.09 8.143,19.216 c0.5790000000000001,0.804 0.5650000000000001,1.501 -0.554,13.96 C25.836034698963164,58.29406939792633 26.359034698963164,61.46406939792633 27.623034698963167,64.07306939792633 z" fill-opacity="1"/>
			<path id="Combined-Shape_5_" fill="#ffa500" d="M66.41503469896317,63.14406939792633 c0.8,1.208 1.6560000000000001,2.403 2.567,3.582 h10.257 c11.655,-9.975999999999999 16.448,-18.893 14.381,-26.75 C90.52003469896316,28.19006939792633 72.65203469896316,1.8270693979263308 64.85803469896317,3.2080693979263306 c-0.09400000000000003,0.08100000000000002 -0.18800000000000003,0.16100000000000003 -0.28,0.24000000000000002 c6.4,4.26 10.473,10.704 10.473,17.985 c0,5.646 -3.73,13.09 -8.143,19.216 c-0.5790000000000001,0.804 -0.5650000000000001,1.501 0.554,13.96 C67.75503469896317,57.86706939792633 67.38003469896317,60.72306939792633 66.41503469896317,63.14406939792633 L66.41503469896317,63.14406939792633 z" fill-opacity="1"/>
			<path id="Combined-Shape_6_" fill="#ffa500" d="M45.578034698963165,1.1560693979263306 c0.08900000000000002,0 2.091,0 2.179,0 c13.404,0.7470000000000001 24,9.537 24,20.276 c0,5.974 -5.449,14.509 -7.577,17.463 c-1.4180000000000001,1.969 -1.052,4.2620000000000005 0,15.981 c1.052,11.72 -7.883,14.272 -12.302,14.272 c-1.391,0 -3.446,-2.7640000000000002 -5.21,-2.7640000000000002 c-1.971,0 -3.657,2.7640000000000002 -5.211,2.7640000000000002 c-4.418,0 -13.354,-2.553 -12.302,-14.272 c1.052,-11.72 1.4180000000000001,-14.012 0,-15.981 C27.027034698963167,35.94206939792633 21.578034698963165,27.407069397926332 21.578034698963165,21.43306939792633 C21.578034698963165,10.693069397926331 32.17403469896317,1.9040693979263308 45.578034698963165,1.1560693979263306 zM46.56703469896316,63.02606939792633 c1.5870000000000002,0 4.789,-3.859 4.789,-4.809 c0,-1.138 -1.287,-2.061 -2.874,-2.061 c-0.7360000000000001,0 -3.095,0 -3.832,0 c-1.5870000000000002,0 -2.873,0.923 -2.873,2.061 C41.77803469896317,59.16706939792633 44.980034698963166,63.02606939792633 46.56703469896316,63.02606939792633 z" fill-opacity="1"/>
		</g>
	</g>
</g></g></svg>